<?xml version="1.0" standalone="no"?>
<!DOCTYPE svg PUBLIC "-//W3C//DTD SVG 20010904//EN"
 "http://www.w3.org/TR/2001/REC-SVG-20010904/DTD/svg10.dtd">
<svg version="1.0" xmlns="http://www.w3.org/2000/svg"     
 preserveAspectRatio="xMidYMid meet">

<g transform="translate(0.000000,256.000000) scale(0.100000,-0.100000)"
class="primary" stroke="none">
<path d="M429 2493 c-20 -23 -20 -566 -1 -585 10 -10 100 -14 407 -16 l395 -3
0 -77 0 -77 -158 -158 -157 -157 -111 0 c-72 0 -116 -4 -127 -12 -15 -12 -17
-44 -19 -287 l-3 -275 -46 -11 c-112 -29 -212 -112 -266 -223 -25 -51 -28 -67
-28 -162 0 -99 2 -110 32 -171 83 -168 276 -260 453 -215 303 78 407 447 187
666 -54 54 -131 97 -189 107 l-38 6 0 238 0 239 77 0 77 0 176 -175 c97 -96
182 -175 190 -175 8 0 93 79 190 175 l176 175 77 0 77 0 0 -239 0 -238 -34 -6
c-97 -16 -217 -111 -269 -213 -93 -183 -22 -414 157 -519 195 -114 457 -33
559 174 30 61 32 72 32 171 0 93 -3 112 -27 162 -50 107 -155 194 -267 223
l-46 11 -3 275 c-2 243 -4 275 -19 287 -11 8 -55 12 -128 12 l-110 0 -158 158
-157 157 0 77 0 77 395 3 c307 2 397 6 407 16 10 10 13 77 13 293 0 266 -1
281 -19 295 -17 12 -149 14 -852 14 -761 0 -833 -1 -845 -17z m1619 -290 l2
-203 -765 0 -765 0 0 205 0 205 763 -2 762 -3 3 -202z m-630 -706 l132 -132
-135 -135 -135 -135 -135 135 -135 135 132 132 c73 73 135 133 138 133 3 0 65
-60 138 -133z m-589 -777 c64 -28 133 -102 155 -167 35 -102 13 -219 -55 -297
-136 -155 -390 -125 -483 57 -53 103 -47 209 17 303 81 121 229 162 366 104z
m1158 -5 c57 -28 101 -73 135 -138 18 -33 23 -59 23 -123 0 -70 -4 -88 -30
-139 -94 -184 -347 -214 -484 -59 -89 101 -96 265 -16 371 89 115 241 151 372
88z"/>
</g>
</svg>
