<?xml version="1.0" standalone="no"?>
<!DOCTYPE svg PUBLIC "-//W3C//DTD SVG 20010904//EN"
 "http://www.w3.org/TR/2001/REC-SVG-20010904/DTD/svg10.dtd">
<svg version="1.0" xmlns="http://www.w3.org/2000/svg"
 viewBox="0 0 200.000000 200.000000"
 preserveAspectRatio="xMidYMid meet">

<g transform="translate(0.000000,200.000000) scale(0.100000,-0.100000)"
fill="#000000" stroke="none">
<path d="M1430 1922 c-22 -10 -42 -32 -54 -56 -17 -36 -18 -43 -5 -80 9 -26
26 -48 46 -61 31 -19 32 -23 33 -82 l0 -63 -230 0 -229 0 -3 78 -3 77 -54 1
-54 1 -52 93 c-28 52 -57 96 -64 98 -12 4 -287 -103 -305 -119 -5 -4 4 -55 19
-116 l29 -108 -63 -63 -63 -63 -102 29 c-55 16 -107 26 -115 22 -21 -11 -135
-292 -124 -308 4 -7 48 -36 97 -65 l89 -52 1 -88 1 -89 -97 -55 c-54 -30 -98
-60 -98 -67 0 -6 27 -77 61 -158 42 -100 67 -148 77 -148 8 0 59 12 113 26
l97 26 61 -62 c34 -34 61 -66 61 -72 0 -5 -12 -49 -26 -99 -14 -49 -24 -96
-22 -105 3 -16 266 -133 300 -134 11 0 35 32 70 95 l53 95 56 0 c67 0 69 3 69
96 l0 64 225 0 225 0 0 -63 c0 -60 -1 -63 -30 -74 -21 -8 -36 -24 -46 -50 -42
-98 66 -194 161 -143 75 40 71 181 -5 205 -17 5 -20 17 -22 98 l-3 92 -255 5
-255 5 -3 73 -3 72 295 0 294 0 67 -80 c65 -80 66 -81 55 -116 -22 -65 3 -120
67 -153 65 -33 153 29 153 109 0 71 -61 127 -125 117 -31 -5 -36 -1 -109 89
l-77 94 -307 2 -307 3 -3 73 -3 72 374 0 373 0 17 -36 c46 -95 188 -71 212 37
10 43 -21 100 -67 122 -32 16 -43 17 -73 7 -19 -6 -45 -25 -59 -41 l-25 -29
-376 0 -376 0 3 98 3 97 373 3 372 2 31 -35 c38 -43 83 -53 132 -30 70 33 86
129 31 186 -54 57 -146 43 -179 -27 l-16 -34 -375 0 -375 0 3 73 3 72 307 3
306 2 77 94 c73 90 78 94 109 89 67 -11 126 46 126 122 0 26 -9 45 -34 73 -30
32 -40 37 -80 37 -81 0 -133 -78 -106 -159 11 -35 10 -36 -55 -116 l-67 -80
-294 0 -295 0 3 73 3 72 255 5 255 5 3 92 c2 81 5 93 22 98 30 10 60 59 60
100 0 50 -23 89 -64 109 -43 20 -53 20 -96 -2z m78 -58 c40 -28 21 -104 -27
-104 -24 0 -48 20 -56 47 -4 17 1 29 19 48 29 29 34 30 64 9z m-727 -81 c59
-109 64 -114 110 -107 l39 7 0 -72 c0 -49 -4 -73 -12 -75 -7 -2 -40 -8 -73
-15 -173 -32 -330 -173 -393 -355 -32 -93 -33 -230 -3 -327 56 -177 221 -328
396 -360 33 -7 66 -13 73 -15 8 -2 12 -26 12 -74 l0 -70 -45 0 -44 0 -45 -77
c-25 -43 -49 -85 -54 -93 -7 -12 -26 -8 -119 29 l-111 43 10 37 c5 20 18 66
29 103 l20 67 -86 86 c-47 47 -93 85 -103 85 -9 0 -55 -12 -101 -25 -47 -14
-88 -22 -93 -17 -4 4 -26 52 -48 107 -47 115 -54 99 69 168 l75 42 0 120 0
120 -80 47 c-43 26 -85 51 -93 55 -10 7 -4 30 30 116 24 59 50 107 56 107 7 0
55 -12 106 -26 l93 -26 87 88 c48 49 86 93 84 99 -21 59 -50 199 -42 202 6 2
51 21 100 42 50 21 95 39 102 40 6 1 31 -34 54 -76z m1059 -133 c11 -11 20
-31 20 -44 0 -25 -32 -56 -57 -56 -20 0 -53 38 -53 60 0 23 33 60 55 60 8 0
24 -9 35 -20z m-910 -655 l0 -476 -37 7 c-163 29 -298 135 -370 289 -26 56
-28 69 -28 185 0 123 1 126 36 201 70 147 232 266 367 268 l32 1 0 -475z m960
185 c11 -11 20 -29 20 -40 0 -22 -33 -60 -53 -60 -25 0 -57 31 -57 56 0 27 32
64 55 64 8 0 24 -9 35 -20z m0 -280 c11 -11 20 -29 20 -40 0 -23 -33 -60 -55
-60 -23 0 -55 37 -55 64 0 25 32 56 57 56 7 0 22 -9 33 -20z m-50 -470 c11
-11 20 -29 20 -40 0 -23 -33 -60 -55 -60 -21 0 -55 36 -55 58 0 29 29 58 63
61 4 1 16 -8 27 -19z m-328 -207 c43 -39 -1 -120 -51 -93 -30 16 -43 44 -32
73 15 39 52 48 83 20z"/>
</g>
</svg>
