<?xml version="1.0" standalone="no"?>
<!DOCTYPE svg PUBLIC "-//W3C//DTD SVG 20010904//EN"
 "http://www.w3.org/TR/2001/REC-SVG-20010904/DTD/svg10.dtd">
<svg version="1.0" xmlns="http://www.w3.org/2000/svg"
 viewBox="0 0 200.000000 200.000000"
 preserveAspectRatio="xMidYMid meet">

<g transform="translate(0.000000,200.000000) scale(0.100000,-0.100000)"
fill="#000000" stroke="none">
<path d="M290 1989 c-35 -11 -93 -50 -118 -79 -71 -83 -66 -236 9 -316 11 -12
23 -43 27 -70 6 -43 10 -49 33 -52 15 -2 29 3 31 10 10 25 -9 109 -31 136 -12
15 -31 47 -42 71 -54 114 32 244 161 243 91 -1 164 -64 171 -147 5 -61 -2 -84
-42 -144 -34 -51 -42 -71 -43 -114 -1 -49 0 -52 26 -55 25 -3 27 0 34 45 4 30
18 62 36 85 98 125 62 299 -76 370 -46 24 -127 31 -176 17z"/>
<path d="M917 1736 c-207 -74 -265 -319 -112 -473 82 -81 189 -104 299 -63 64
25 125 82 158 148 31 65 31 168 -1 235 -62 127 -220 197 -344 153z"/>
<path d="M240 1445 c-10 -12 -10 -18 0 -30 10 -12 36 -15 115 -15 79 0 105 3
115 15 10 12 10 18 0 30 -10 12 -36 15 -115 15 -79 0 -105 -3 -115 -15z"/>
<path d="M260 1365 c-10 -12 -10 -18 0 -30 9 -11 34 -15 95 -15 61 0 86 4 95
15 10 12 10 18 0 30 -9 11 -34 15 -95 15 -61 0 -86 -4 -95 -15z"/>
<path d="M292 1278 c3 -7 17 -19 32 -26 31 -15 80 -2 90 24 4 11 -8 14 -60 14
-48 0 -65 -3 -62 -12z"/>
<path d="M670 1101 c-45 -14 -85 -39 -116 -73 -43 -45 -434 -584 -456 -627
-48 -94 12 -207 120 -227 22 -4 77 6 180 35 82 22 151 41 155 41 4 0 7 -56 7
-125 l0 -125 440 0 440 0 0 125 c0 69 3 125 6 125 3 0 69 -18 147 -41 188 -54
234 -48 295 41 26 39 30 110 7 153 -22 43 -413 577 -454 620 -20 21 -54 48
-76 60 -38 21 -53 22 -355 24 -173 1 -326 -2 -340 -6z m114 -261 l209 -70 215
70 c117 39 218 70 223 70 5 0 9 -73 9 -166 l0 -166 -32 9 c-122 30 -218 -32
-218 -142 0 -62 29 -109 86 -138 l44 -23 -163 -53 -163 -54 -158 53 c-86 28
-155 54 -153 57 3 2 20 13 39 22 40 22 75 71 84 117 9 46 -30 122 -75 148 -35
20 -96 26 -143 13 l-28 -7 0 165 c0 91 3 165 8 165 4 0 102 -31 216 -70z"/>
</g>
</svg>
