<?xml version="1.0" standalone="no"?>
<!DOCTYPE svg PUBLIC "-//W3C//DTD SVG 20010904//EN"
 "http://www.w3.org/TR/2001/REC-SVG-20010904/DTD/svg10.dtd">
<svg version="1.0" xmlns="http://www.w3.org/2000/svg"
 viewBox="0 0 225.000000 225.000000"
 preserveAspectRatio="xMidYMid meet">

<g transform="translate(0.000000,225.000000) scale(0.100000,-0.100000)"
fill="#000000" stroke="none">
<path d="M1035 2243 c-393 -33 -739 -269 -915 -620 -82 -166 -113 -296 -113
-488 0 -150 10 -223 50 -350 95 -303 334 -568 621 -689 560 -236 1197 2 1456
545 212 441 114 965 -243 1301 -176 166 -409 273 -652 298 -99 10 -122 10
-204 3z m228 -566 c100 -59 147 -149 147 -284 l0 -73 37 0 c73 0 73 0 73 -300
0 -193 -3 -269 -12 -278 -17 -17 -749 -17 -766 0 -9 9 -12 84 -12 277 0 299 0
301 72 301 l38 0 0 68 c0 154 68 262 195 310 17 6 64 10 106 9 61 -3 85 -9
122 -30z"/>
<path d="M1039 1600 c-77 -40 -109 -105 -109 -217 l0 -63 195 0 195 0 -1 73
c0 39 -6 87 -12 105 -16 42 -63 91 -104 108 -46 20 -121 17 -164 -6z"/>
<path d="M1070 1172 c-35 -36 -40 -78 -11 -113 17 -21 19 -35 14 -111 l-6 -88
58 0 58 0 -6 91 c-5 81 -4 92 14 110 42 42 8 123 -58 135 -27 5 -37 1 -63 -24z"/>
</g>
</svg>
