<?xml version="1.0" standalone="no"?>
<!DOCTYPE svg PUBLIC "-//W3C//DTD SVG 20010904//EN"
 "http://www.w3.org/TR/2001/REC-SVG-20010904/DTD/svg10.dtd">
<svg version="1.0" xmlns="http://www.w3.org/2000/svg"
 preserveAspectRatio="xMidYMid meet">

<g transform="translate(0.000000,200.000000) scale(0.100000,-0.100000)"
fill="#000000" stroke="none">
<path d="M297 1793 c-4 -3 -7 -50 -7 -104 0 -76 3 -98 15 -103 28 -11 45 22
45 90 l0 64 720 0 720 0 0 -405 0 -405 -455 0 c-398 0 -456 -2 -461 -15 -4 -8
-1 -22 6 -30 11 -13 78 -15 479 -15 256 0 472 4 479 8 10 7 12 106 10 463 l-3
454 -771 3 c-424 1 -774 -1 -777 -5z"/>
<path d="M308 1560 c-88 -27 -138 -93 -138 -182 0 -153 173 -236 298 -142 101
77 87 250 -27 308 -36 19 -100 26 -133 16z m127 -93 c65 -65 51 -159 -28 -200
-50 -26 -100 -16 -144 28 -29 29 -33 39 -33 85 0 46 4 56 34 86 30 30 40 34
86 34 46 0 56 -4 85 -33z"/>
<path d="M1048 1447 c-7 -8 -42 -57 -77 -110 -47 -69 -71 -97 -90 -101 -37 -8
-42 -13 -100 -99 -34 -51 -57 -77 -66 -73 -42 16 -249 77 -304 90 -142 33
-276 -41 -315 -175 -20 -67 -23 -478 -4 -497 17 -17 499 -17 516 0 9 9 12 72
12 223 l0 212 69 -15 c64 -14 71 -14 107 4 32 15 51 39 102 124 51 85 62 112
60 142 -2 31 9 52 70 141 40 58 72 110 72 116 0 19 -37 32 -52 18z m-148 -288
c0 -25 -105 -192 -127 -202 -17 -8 -43 -6 -102 8 -44 10 -86 15 -95 12 -14 -6
-16 -34 -16 -227 l0 -220 -205 0 -205 0 0 209 c0 123 4 221 11 238 18 48 79
102 133 118 56 17 63 16 311 -60 82 -25 150 -45 151 -45 2 0 31 41 64 90 56
83 80 107 80 79z"/>
<path d="M933 751 c-54 -25 -83 -71 -83 -131 0 -129 149 -192 242 -103 42 40
54 95 33 150 -32 83 -115 119 -192 84z m104 -60 c59 -36 52 -120 -11 -146 -39
-16 -60 -12 -93 18 -44 39 -23 118 37 140 25 9 34 8 67 -12z"/>
<path d="M1296 760 c-39 -12 -83 -56 -97 -97 -15 -47 -4 -97 32 -138 88 -100
249 -38 249 97 0 92 -97 164 -184 138z m102 -82 c44 -42 22 -119 -41 -141 -10
-4 -34 0 -53 8 -63 26 -70 109 -11 146 37 22 71 18 105 -13z"/>
<path d="M1623 751 c-140 -65 -92 -274 64 -274 77 0 138 63 138 143 0 107
-106 175 -202 131z m125 -77 c29 -33 28 -76 -2 -110 -67 -79 -189 19 -130 104
33 48 92 50 132 6z"/>
<path d="M900 434 c-70 -30 -123 -102 -136 -182 -5 -34 -3 -42 14 -51 22 -12
1086 -16 1116 -5 29 11 20 83 -17 144 -47 80 -107 112 -204 108 -62 -3 -78 -8
-117 -35 l-46 -33 -45 32 c-62 44 -157 51 -227 18 -26 -12 -52 -28 -58 -35 -9
-10 -22 -6 -67 21 -48 29 -66 34 -117 34 -34 -1 -77 -8 -96 -16z m168 -58 c15
-8 42 -30 59 -50 36 -39 50 -39 81 3 27 36 80 61 132 61 50 0 84 -17 129 -64
19 -20 40 -36 47 -36 7 0 23 14 35 31 42 59 134 84 203 55 37 -15 96 -82 96
-108 0 -17 -29 -18 -515 -18 l-515 0 10 26 c17 44 48 80 82 97 41 20 120 22
156 3z"/>
</g>
</svg>
